# xmcd
#
# Track frame offsets:
#	150
#	15510
#	32465
#	50265
#	70185
#	85510
#	102915
#	120965
#	134905
#	146242
#	160192
#	178340
#	191785
#	206172
#	228432
#	245360
#	259730
#	276230
#	289750
#	301425
#
# Disc length: 4237 seconds
#
# Revision: 1
# Processed by: cddbd v1.5.2PL0 Copyright (c) Steve Scherf et al.
# Submitted via: audiograbber 1.83.01
#
DISCID=24108b14
DTITLE=Various Artist - SOUND FACTORY - COUNTRY 3
DYEAR=1900
DGENRE=
TTITLE0=BROOKS and DUNN - BOOT SCOOTIN BOOGIE
TTITLE1=GARTH BROOKS - THE DANCE 
TTITLE2=GARTH BROOKS - FRIENDS IN LOW PLACES
TTITLE3=MARC COHEN - WALKING IN MEMPHIS
TTITLE4=BILL RAE CYRUS - ACHY BREAKY HEART
TTITLE5=V - PROP ME UP BESIDE THE JUKEBOX IF I DIE
TTITLE6=V - I STILL BELIEVE IN YOU
TTITLE7=V - ONE MORE LAST CHANCE
TTITLE8=ALAN JACKSON - CHATAHOOCHIE
TTITLE9=ALAN JACKSON - DON'T ROCK THE JUKEBOX
TTITLE10=TEXAS - AMAZED
TTITLE11=V - WHAT'S FOREVER FOR
TTITLE12=V - IN THIS LIFE
TTITLE13=V - MY BEST FRIEND
TTITLE14=V - THE WALK
TTITLE15=V - LOVE WITHOUT END AMEN 
TTITLE16=RANDY TRAVIS - FOREVER AND EVER AMEN
TTITLE17=V - ON THE OTHER HAND
TTITLE18=RANDY TRAVIS - HERE'S A QUARTER CALL SOMEONE WHO CARES
TTITLE19=V - DON'T CLOSE YOUR EYES
EXTD=
EXTT0=
EXTT1=
EXTT2=
EXTT3=
EXTT4=
EXTT5=
EXTT6=
EXTT7=
EXTT8=
EXTT9=
EXTT10=
EXTT11=
EXTT12=
EXTT13=
EXTT14=
EXTT15=
EXTT16=
EXTT17=
EXTT18=
EXTT19=
PLAYORDER=
